<?xml version="1.0" standalone="no"?>
<!DOCTYPE svg PUBLIC "-//W3C//DTD SVG 20010904//EN"
 "http://www.w3.org/TR/2001/REC-SVG-20010904/DTD/svg10.dtd">
<svg version="1.0" xmlns="http://www.w3.org/2000/svg"
 width="200.000000pt" height="250.000000pt" viewBox="0 0 200.000000 250.000000"
 preserveAspectRatio="xMidYMid meet">

<g transform="translate(0.000000,250.000000) scale(0.100000,-0.100000)"
fill="#000000" stroke="none">
<path d="M51 2486 c-53 -29 -50 25 -51 -1234 0 -1275 -3 -1214 55 -1240 19 -9
254 -12 946 -12 999 0 961 -2 987 55 17 38 17 2352 0 2390 -26 57 13 55 -990
55 -747 -1 -928 -3 -947 -14z m1904 -31 l25 -24 0 -1181 0 -1181 -25 -24 -24
-25 -931 0 -931 0 -24 25 -25 24 0 1181 0 1181 25 24 24 25 931 0 931 0 24
-25z"/>
<path d="M885 2005 c-314 -58 -552 -288 -615 -597 -25 -117 -25 -169 0 -286
54 -265 243 -481 494 -566 65 -22 190 -46 241 -46 51 0 176 24 241 46 252 85
441 302 494 569 25 121 25 159 0 280 -13 66 -34 128 -66 193 -39 81 -60 109
-138 187 -129 130 -242 189 -421 221 -94 16 -136 16 -230 -1z m119 -87 c16
-54 17 -54 32 -20 14 34 34 35 34 2 0 -29 16 -32 28 -5 10 21 32 35 32 20 0
-13 -45 -95 -52 -95 -5 0 -11 14 -14 30 -8 37 -20 39 -28 5 -12 -46 -32 -27
-50 48 -6 27 11 41 18 15z m-109 -8 c-3 -5 -15 -10 -26 -10 -11 0 -19 -7 -19
-16 0 -12 6 -15 25 -10 14 4 25 2 25 -4 0 -5 -9 -10 -20 -10 -12 0 -20 -7 -20
-16 0 -13 7 -15 30 -10 17 3 30 1 30 -4 0 -6 -6 -10 -12 -10 -7 0 -23 -3 -35
-6 -22 -6 -25 -1 -38 63 -5 25 -3 32 12 36 33 8 54 7 48 -3z m323 -10 c6 0 12
-7 12 -15 0 -11 -5 -12 -25 -5 -15 6 -26 6 -30 0 -4 -6 5 -14 19 -20 34 -12
33 -22 -1 -18 -34 4 -42 -18 -8 -26 14 -4 25 -11 25 -16 0 -6 -2 -10 -4 -10
-9 0 -66 23 -66 27 0 2 5 24 11 49 10 39 15 45 33 40 12 -3 27 -6 34 -6z
m-424 -36 c32 -31 17 -73 -30 -88 -17 -5 -24 1 -39 35 -19 40 -19 42 0 55 25
18 50 18 69 -2z m586 -51 c0 -3 -9 -3 -19 0 -14 3 -24 -4 -37 -29 -10 -19 -22
-34 -26 -34 -11 0 -10 5 10 46 13 28 14 38 4 41 -6 3 -10 9 -7 13 5 9 75 -26
75 -37z m-699 -3 c29 -16 25 -65 -6 -86 -23 -15 -27 -15 -50 0 -29 19 -33 56
-9 80 18 19 38 20 65 6z m485 -51 c124 -38 247 -145 304 -264 38 -80 52 -143
52 -240 -2 -243 -173 -448 -417 -500 -87 -18 -113 -18 -199 0 -112 24 -189 66
-270 148 -102 101 -156 229 -156 367 0 117 54 251 136 340 148 159 345 212
550 149z m274 11 c27 -27 25 -48 -5 -62 -14 -6 -25 -17 -25 -25 0 -7 -4 -13
-10 -13 -5 0 -10 14 -10 30 0 32 -9 37 -28 18 -6 -6 -15 -9 -19 -5 -7 8 55 77
69 77 4 0 17 -9 28 -20z m-899 -49 c-17 -17 -19 -25 -11 -41 15 -27 54 -26 68
3 l12 22 -3 -25 c-3 -35 -49 -50 -77 -25 -11 10 -20 26 -20 37 0 19 38 63 47
55 2 -3 -5 -15 -16 -26z m969 -17 c0 -3 -14 -19 -31 -35 -49 -45 -15 -69 42
-28 34 24 38 15 7 -18 -27 -29 -73 -31 -88 -4 -14 28 -14 30 21 62 29 27 49
37 49 23z m-1026 -115 c20 -12 36 -25 36 -29 0 -11 -26 -20 -56 -20 -32 0 -30
-14 4 -30 15 -7 22 -15 15 -17 -15 -5 -97 36 -88 45 3 4 25 12 48 18 l42 11
-27 13 c-27 13 -38 30 -19 30 6 0 26 -9 45 -21z m1106 -4 c6 -8 10 -22 7 -32
-4 -16 -6 -15 -12 5 -11 33 -25 27 -25 -12 0 -21 -6 -36 -15 -40 -18 -6 -55
27 -55 49 0 22 17 18 23 -5 7 -27 29 -25 26 3 -6 42 26 63 51 32z m46 -101
c15 -36 11 -61 -5 -35 -7 11 -15 11 -41 2 -40 -14 -50 -14 -50 -1 0 5 15 13
33 18 22 6 33 15 35 30 5 31 11 28 28 -14z m-1166 -35 c0 -12 2 -12 -53 7 -26
9 -45 20 -42 24 7 11 95 -18 95 -31z m-93 -211 c-2 -18 -4 -6 -4 27 0 33 2 48
4 33 2 -15 2 -42 0 -60z m1250 -70 c-3 -8 -6 -5 -6 6 -1 11 2 17 5 13 3 -3 4
-12 1 -19z m-1230 -60 c-3 -8 -6 -5 -6 6 -1 11 2 17 5 13 3 -3 4 -12 1 -19z
m1184 -95 c-12 -20 -14 -14 -5 12 4 9 9 14 11 11 3 -2 0 -13 -6 -23z m-1124
-45 c17 -32 27 -55 22 -52 -10 6 -59 98 -59 110 0 11 4 5 37 -58z m1088 -27
c-8 -17 -21 -33 -27 -37 -8 -5 -7 1 3 16 8 14 19 31 23 38 15 25 16 11 1 -17z
m-895 -126 c7 -9 9 -19 5 -23 -4 -4 -10 -1 -12 6 -4 12 -63 18 -63 6 0 -17 23
-44 37 -44 13 0 14 -3 5 -12 -21 -21 -74 45 -57 72 10 16 71 12 85 -5z m803 3
c5 -16 -34 -78 -50 -78 -6 0 -15 5 -19 11 -4 7 -1 10 7 7 15 -5 38 19 39 40 0
7 -12 12 -30 12 -16 0 -30 -5 -30 -11 0 -5 -5 -7 -10 -4 -8 5 -7 11 1 21 14
17 86 19 92 2z m-234 -126 c7 -14 6 -18 -10 -18 -10 0 -19 4 -19 8 0 4 6 8 13
8 8 0 7 4 -3 10 -9 6 -10 10 -3 10 7 0 17 -8 22 -18z m-81 -47 c-3 -3 -9 2
-12 12 -6 14 -5 15 5 6 7 -7 10 -15 7 -18z"/>
<path d="M730 1851 c0 -18 20 -61 28 -61 4 0 16 6 26 13 28 21 13 57 -25 57
-16 0 -29 -4 -29 -9z"/>
<path d="M626 1791 c-23 -25 -6 -64 26 -59 34 5 45 33 24 57 -23 26 -28 26
-50 2z"/>
<path d="M870 1754 c-136 -37 -263 -145 -327 -280 -32 -67 -37 -87 -41 -173
-8 -166 28 -268 135 -382 100 -106 223 -159 368 -159 334 0 572 313 487 641
-44 166 -189 310 -357 354 -73 19 -192 18 -265 -1z m-30 -204 c0 -47 11 -63
25 -40 3 6 22 10 41 10 52 0 94 -45 94 -100 0 -33 -6 -48 -29 -71 -32 -31 -86
-40 -110 -16 -11 10 -14 10 -18 0 -3 -7 -13 -13 -24 -13 -18 0 -19 9 -19 140
0 133 1 140 20 140 17 0 20 -7 20 -50z m345 -55 c17 -16 25 -35 25 -60 l0 -35
-75 0 c-75 0 -88 -7 -60 -30 10 -9 32 -11 65 -7 56 7 71 -4 38 -27 -35 -25
-91 -20 -127 10 -27 22 -31 32 -31 72 1 69 33 101 103 102 27 0 45 -7 62 -25z
m-37 -240 c-6 -14 -13 -23 -15 -21 -5 5 15 46 22 46 3 0 -1 -11 -7 -25z m62
15 c0 -5 -2 -10 -4 -10 -3 0 -8 5 -11 10 -3 6 -1 10 4 10 6 0 11 -4 11 -10z
m-230 -64 c0 -14 -4 -27 -9 -30 -4 -3 -6 6 -3 20 4 24 2 26 -19 19 -19 -5 -21
-4 -9 4 25 18 40 12 40 -13z m176 -43 c-8 -15 -15 -25 -16 -21 0 12 23 58 27
54 3 -2 -2 -17 -11 -33z m-259 -24 c-9 -6 -15 -14 -12 -20 3 -5 -1 -6 -11 -2
-16 6 -15 7 2 20 10 7 23 13 28 13 6 0 3 -5 -7 -11z m224 -56 c-11 -21 -20
-35 -21 -31 0 12 33 78 38 74 2 -2 -6 -21 -17 -43z m-196 17 c3 -6 -1 -7 -9
-4 -18 7 -21 14 -7 14 6 0 13 -4 16 -10z m55 -56 c0 -13 -3 -24 -7 -24 -5 0
-8 13 -8 29 0 16 3 27 8 24 4 -2 7 -15 7 -29z m71 9 c-12 -20 -14 -14 -5 12 4
9 9 14 11 11 3 -2 0 -13 -6 -23z m-121 -8 c14 -8 21 -14 15 -14 -5 0 -21 6
-35 14 -14 8 -20 14 -15 14 6 0 21 -6 35 -14z m148 -50 c-6 -14 -15 -25 -20
-25 -5 0 -1 11 8 25 9 14 18 25 20 25 2 0 -2 -11 -8 -25z"/>
<path d="M857 1462 c-22 -24 -22 -66 -1 -87 25 -25 75 -16 94 18 13 24 13 30
0 55 -20 34 -68 42 -93 14z"/>
<path d="M1091 1477 c-43 -21 -36 -35 19 -39 60 -4 73 7 40 34 -26 21 -28 21
-59 5z"/>
<path d="M1397 1756 c-8 -20 20 -43 35 -28 8 8 8 15 -2 27 -16 19 -26 19 -33
1z"/>
</g>
</svg>
