<?xml version="1.0" encoding="iso-8859-1"?>
<!-- Generator: Adobe Illustrator 19.0.0, SVG Export Plug-In . SVG Version: 6.00 Build 0)  -->
<svg version="1.1" id="Layer_1" xmlns="http://www.w3.org/2000/svg" xmlns:xlink="http://www.w3.org/1999/xlink" x="0px" y="0px"
	 viewBox="0 0 512 512" style="enable-background:new 0 0 512 512;" xml:space="preserve">
<path style="fill:#507D8C;" d="M273.655,35.31h-35.31c0,79.448-52.966,132.414-52.966,211.862v44.138h141.241v-44.138
	C326.621,167.724,273.655,114.759,273.655,35.31z"/>
<path style="fill:#4B6E7D;" d="M238.345,35.31c0,79.448-52.966,132.414-52.966,211.862v44.138h52.966v-44.138
	c0-79.448,16.552-132.414,16.552-211.862H238.345z"/>
<path style="fill:#E4EAF6;" d="M230.116,280.318l-30.498,17.796c-4.211,2.457-9.617,1.035-12.074-3.176l-17.796-30.498
	c-2.457-4.211-1.035-9.617,3.176-12.074l30.498-17.796c4.211-2.457,9.617-1.035,12.074,3.176l17.796,30.498
	C235.748,272.455,234.327,277.86,230.116,280.318z"/>
<path style="fill:#D7DEED;" d="M206.605,283.816l-17.796-30.498c-2.457-4.211-1.036-9.617,3.176-12.074l-19.061,11.123
	c-4.211,2.457-5.632,7.863-3.176,12.074l17.796,30.498c2.457,4.211,7.862,5.633,12.074,3.176l19.061-11.123
	C214.468,289.448,209.063,288.026,206.605,283.816z"/>
<path style="fill:#E4EAF6;" d="M191.622,278.382l-24.968,24.968c-3.447,3.447-9.037,3.447-12.484,0l-24.968-24.968
	c-3.447-3.447-3.447-9.037,0-12.484l24.968-24.968c3.447-3.447,9.037-3.447,12.484,0l24.968,24.968
	C195.069,269.346,195.069,274.935,191.622,278.382z"/>
<path style="fill:#D7DEED;" d="M169.774,287.746l-24.968-24.968c-3.447-3.447-3.447-9.036,0-12.484l-15.605,15.605
	c-3.447,3.447-3.447,9.037,0,12.484l24.968,24.968c3.447,3.447,9.036,3.447,12.484,0l15.605-15.605
	C178.81,291.193,173.222,291.193,169.774,287.746z"/>
<path style="fill:#E4EAF6;" d="M385.828,278.382l-24.968,24.968c-3.447,3.447-9.037,3.447-12.484,0l-24.968-24.968
	c-3.447-3.447-3.447-9.037,0-12.484l24.968-24.968c3.447-3.447,9.037-3.447,12.484,0l24.968,24.968
	C389.276,269.346,389.276,274.935,385.828,278.382z"/>
<path style="fill:#D7DEED;" d="M363.981,287.746l-24.968-24.968c-3.447-3.447-3.447-9.036,0-12.484l-15.605,15.605
	c-3.447,3.447-3.447,9.037,0,12.484l24.968,24.968c3.447,3.447,9.036,3.447,12.484,0l15.605-15.605
	C373.017,291.193,367.428,291.193,363.981,287.746z"/>
<path style="fill:#E4EAF6;" d="M342.353,281.859l-34.81,5.922c-4.807,0.818-9.365-2.415-10.183-7.222l-5.922-34.81
	c-0.818-4.807,2.415-9.365,7.222-10.183l34.81-5.922c4.807-0.818,9.365,2.415,10.183,7.222l5.922,34.81
	C350.392,276.482,347.158,281.042,342.353,281.859z"/>
<path style="fill:#D7DEED;" d="M319.115,276.857l-5.922-34.81c-0.818-4.806,2.415-9.365,7.222-10.183l-21.757,3.701
	c-4.807,0.818-8.04,5.377-7.222,10.183l5.922,34.81c0.818,4.806,5.377,8.04,10.183,7.222l21.757-3.701
	C324.492,284.897,319.933,281.664,319.115,276.857z"/>
<path style="fill:#E4EAF6;" d="M315.208,281.411l-24.968,24.968c-3.447,3.447-9.037,3.447-12.484,0l-24.968-24.968
	c-3.447-3.447-3.447-9.037,0-12.484l24.968-24.968c3.447-3.447,9.037-3.447,12.484,0l24.968,24.968
	C318.655,272.375,318.655,277.964,315.208,281.411z"/>
<path style="fill:#D7DEED;" d="M293.361,290.775l-24.968-24.968c-3.447-3.447-3.447-9.036,0-12.484l-15.605,15.605
	c-3.447,3.447-3.447,9.037,0,12.484l24.968,24.968c3.447,3.447,9.036,3.447,12.484,0l15.605-15.605
	C302.397,294.222,296.808,294.222,293.361,290.775z"/>
<path style="fill:#E4EAF6;" d="M276.422,297.443l-33.528,11.074c-4.629,1.529-9.622-0.984-11.15-5.613l-11.074-33.528
	c-1.529-4.629,0.984-9.622,5.613-11.15l33.528-11.074c4.629-1.529,9.622,0.984,11.15,5.613l11.074,33.528
	C283.564,290.922,281.05,295.914,276.422,297.443z"/>
<path style="fill:#D7DEED;" d="M252.697,295.982l-11.074-33.528c-1.529-4.629,0.984-9.622,5.613-11.15l-20.956,6.922
	c-4.629,1.529-7.143,6.521-5.613,11.15l11.074,33.528c1.529,4.629,6.521,7.143,11.15,5.613l20.956-6.922
	C259.219,303.125,254.227,300.611,252.697,295.982z"/>
<g>
	<path style="fill:#959CB3;" d="M88.276,344.276c-4.879,0-8.828-3.948-8.828-8.828c0-14.603,11.88-26.483,26.483-26.483h35.31
		c4.879,0,8.828,3.948,8.828,8.828c0,4.879-3.948,8.828-8.828,8.828h-35.31c-4.871,0-8.828,3.957-8.828,8.828
		C97.103,340.328,93.155,344.276,88.276,344.276z"/>
	<path style="fill:#959CB3;" d="M423.724,344.276c4.879,0,8.828-3.948,8.828-8.828c0-14.603-11.88-26.483-26.483-26.483h-35.31
		c-4.879,0-8.828,3.948-8.828,8.828c0,4.879,3.948,8.828,8.828,8.828h35.31c4.871,0,8.828,3.957,8.828,8.828
		C414.897,340.328,418.845,344.276,423.724,344.276z"/>
</g>
<path style="fill:#A2AAC2;" d="M344.276,512H167.724c-4.875,0-8.828-3.953-8.828-8.828v-17.655c0-4.875,3.953-8.828,8.828-8.828
	h176.552c4.875,0,8.828,3.953,8.828,8.828v17.655C353.103,508.047,349.151,512,344.276,512z"/>
<path style="fill:#959CB3;" d="M238.345,503.172v-17.655c0-4.875,3.953-8.828,8.828-8.828h-79.448c-4.875,0-8.828,3.953-8.828,8.828
	v17.655c0,4.875,3.953,8.828,8.828,8.828h79.448C242.297,512,238.345,508.047,238.345,503.172z"/>
<path style="fill:#AFB9D2;" d="M123.586,291.31l25.4,195.455c0.621,4.349,4.345,7.58,8.739,7.58h196.55
	c4.393,0,8.118-3.23,8.739-7.58l25.399-195.455H123.586z"/>
<g>
	<path style="fill:#A2AAC2;" d="M227.754,486.765L211.862,291.31h-88.276l25.4,195.455c0.621,4.349,4.345,7.58,8.739,7.58h76.341
		C230.893,494.345,228.203,491.114,227.754,486.765z"/>
	<path style="fill:#A2AAC2;" d="M388.414,291.31H123.586c-4.875,0-8.828-3.953-8.828-8.828l0,0c0-4.875,3.953-8.828,8.828-8.828
		h264.828c4.875,0,8.828,3.953,8.828,8.828l0,0C397.241,287.358,393.289,291.31,388.414,291.31z"/>
</g>
<path style="fill:#959CB3;" d="M203.034,282.483c0-4.875,3.953-8.828,8.828-8.828h-88.276c-4.875,0-8.828,3.953-8.828,8.828
	s3.953,8.828,8.828,8.828h88.276C206.987,291.31,203.034,287.358,203.034,282.483z"/>
<g>
	<path style="fill:#FFD782;" d="M273.655,35.31h-35.31c-4.875,0-8.828-3.953-8.828-8.828V8.828c0-4.875,3.953-8.828,8.828-8.828
		h35.31c4.875,0,8.828,3.953,8.828,8.828v17.655C282.483,31.358,278.53,35.31,273.655,35.31z"/>
	<path style="fill:#FFD782;" d="M296.629,132.414c-11.97-30.211-22.974-60.907-22.974-97.103h-35.31
		c0,36.196-11.004,66.892-22.974,97.103h15.768c3.648,10.263,13.347,17.655,24.861,17.655c11.514,0,21.213-7.392,24.861-17.655
		H296.629z"/>
</g>
<path style="fill:#FFC36E;" d="M274.626,52.966c-0.567-5.763-0.971-11.608-0.971-17.655H256c-4.875,0-8.828-3.953-8.828-8.828V8.828
	C247.172,3.953,251.125,0,256,0h-17.655c-4.875,0-8.828,3.953-8.828,8.828v17.655c0,4.875,3.953,8.828,8.828,8.828
	c0,6.047-0.309,11.892-0.876,17.655l0,0c-2.824,28.754-12.121,54.271-22.098,79.448h15.768c2.494,7.017,7.854,12.622,14.652,15.511
	c3.77-30.327,7.762-60.3,8.825-94.959C254.616,52.966,274.626,52.966,274.626,52.966z"/>
<g>
</g>
<g>
</g>
<g>
</g>
<g>
</g>
<g>
</g>
<g>
</g>
<g>
</g>
<g>
</g>
<g>
</g>
<g>
</g>
<g>
</g>
<g>
</g>
<g>
</g>
<g>
</g>
<g>
</g>
</svg>
