<?xml version="1.0" encoding="iso-8859-1"?>
<!-- Generator: Adobe Illustrator 19.0.0, SVG Export Plug-In . SVG Version: 6.00 Build 0)  -->
<svg version="1.1" id="Layer_1" xmlns="http://www.w3.org/2000/svg" xmlns:xlink="http://www.w3.org/1999/xlink" x="0px" y="0px"
	 viewBox="0 0 512.001 512.001" style="enable-background:new 0 0 512.001 512.001;" xml:space="preserve">
<path style="fill:#C89173;" d="M403.426,493.954L15.549,106.077c-20.731-20.731-20.731-54.342,0-75.073l0,0
	c20.731-20.731,54.342-20.731,75.073,0l387.877,387.877c3.455,3.455,3.455,9.058,0,12.512l-62.561,62.561
	C412.483,497.409,406.881,497.409,403.426,493.954z"/>
<path style="fill:#B97A64;" d="M428.45,468.929L40.573,81.052c-16.337-16.337-19.742-40.651-10.33-60.379
	c-5.307,2.531-10.3,5.937-14.694,10.33c-20.731,20.731-20.731,54.342,0,75.073l387.877,387.877c3.455,3.455,9.058,3.455,12.512,0
	l25.024-25.024C437.508,472.384,431.906,472.385,428.45,468.929z"/>
<path style="fill:#FF6464;" d="M397.17,487.698l6.256,6.256c3.455,3.455,9.058,3.455,12.512,0l62.561-62.561
	c3.455-3.455,3.455-9.058,0-12.512l-6.256-6.256L397.17,487.698z"/>
<path style="fill:#B97A64;" d="M378.401,468.929l-37.536-37.536c37.536-37.536,50.049-12.512,93.841-56.305l18.769,18.769
	L378.401,468.929z"/>
<path style="fill:#AA6455;" d="M370.168,410.648c-8.487,3.528-17.696,9.138-29.303,20.746l37.536,37.536l25.024-25.024
	L370.168,410.648z"/>
<path style="fill:#D7DEED;" d="M397.17,487.698l-25.024-25.025c12.512-25.024,31.28-18.769,50.049-37.536
	c18.769-18.769,31.28-31.28,31.28-31.28l18.769,18.769L397.17,487.698z"/>
<rect x="195.465" y="184.376" transform="matrix(-0.7071 -0.7071 0.7071 -0.7071 211.0804 562.3519)" style="fill:#515262;" width="53.084" height="106.168"/>
<circle style="fill:#65687A;" cx="222.005" cy="237.455" r="44.237"/>
<circle style="fill:#FFD782;" cx="222.005" cy="237.455" r="26.542"/>
<path style="fill:#C3CCE0;" d="M372.146,462.673l25.024,25.024l25.024-25.024l-23.03-23.03
	C388.861,444.124,379.437,448.089,372.146,462.673z"/>
<g>
	<path style="fill:#E4EAF6;" d="M502.913,416.918c-0.251,0-0.501-0.009-0.761-0.034c-4.864-0.415-8.476-4.691-8.061-9.564
		c1.918-22.576-8.977-44.393-31.519-63.09c-87.308-72.413-113.176-151.78-72.835-223.484c2.376-4.268,7.776-5.788,12.045-3.37
		c4.26,2.393,5.772,7.785,3.37,12.045c-25.23,44.851-33.783,116.166,68.724,201.193c34.361,28.503,39.546,58.26,37.844,78.21
		C511.328,413.436,507.458,416.918,502.913,416.918z"/>
	<path style="fill:#E4EAF6;" d="M423.995,240.099c-3.188,0-6.264-1.729-7.845-4.743c-13.099-25.013-18.844-66.977,28.21-124.832
		c15.207-18.706,6.731-44.255,6.644-44.514c-1.581-4.623,0.89-9.651,5.512-11.232c4.632-1.573,9.651,0.89,11.232,5.512
		c0.484,1.426,11.664,35.174-9.668,61.397c-32.884,40.444-41.723,75.929-26.257,105.46c2.273,4.329,0.596,9.677-3.733,11.941
		C426.777,239.779,425.378,240.099,423.995,240.099z"/>
</g>
<g>
</g>
<g>
</g>
<g>
</g>
<g>
</g>
<g>
</g>
<g>
</g>
<g>
</g>
<g>
</g>
<g>
</g>
<g>
</g>
<g>
</g>
<g>
</g>
<g>
</g>
<g>
</g>
<g>
</g>
</svg>
