<?xml version="1.0" encoding="iso-8859-1"?>
<!-- Generator: Adobe Illustrator 19.0.0, SVG Export Plug-In . SVG Version: 6.00 Build 0)  -->
<svg version="1.1" id="Layer_1" xmlns="http://www.w3.org/2000/svg" xmlns:xlink="http://www.w3.org/1999/xlink" x="0px" y="0px"
	 viewBox="0 0 512 512" style="enable-background:new 0 0 512 512;" xml:space="preserve">
<path style="fill:#E4EAF6;" d="M160.35,0c-3.797,0-7.207,2.493-8.412,6.093c-28.69,85.737-37.18,138.887-37.18,180.547
	c0,77.309,63.236,139.98,141.241,139.98s141.241-62.671,141.241-139.98c0-41.661-8.49-94.81-37.18-180.547
	C358.857,2.493,355.447,0,351.65,0H160.35z"/>
<path style="fill:#D7DEED;" d="M203.034,186.641c0-41.661,8.49-94.81,37.18-180.547C241.419,2.492,244.829,0,248.626,0H160.35
	c-3.797,0-7.207,2.492-8.412,6.092c-28.69,85.738-37.18,138.888-37.18,180.548c0,77.308,63.236,139.98,141.241,139.98
	c15.428,0,30.24-2.537,44.138-7.069C243.769,301.171,203.034,248.658,203.034,186.641z"/>
<path style="fill:#C3CCE0;" d="M317.793,494.345h-8.828c-24.337,0-44.138-19.801-44.138-44.138c0,0-0.046-74.916-0.071-108.289
	c-0.007-8.749,6.433-15.986,15.061-17.442c27.484-4.638,52.242-17.119,71.879-35.092c0,0-29.312,19.582-95.697,19.582
	s-95.697-19.582-95.697-19.582c19.636,17.973,44.395,30.454,71.879,35.092c8.628,1.455,15.068,8.693,15.061,17.442
	c-0.024,33.373-0.071,108.289-0.071,108.289c0,24.337-19.801,44.138-44.138,44.138h-8.828c-4.879,0-8.828,3.948-8.828,8.828
	c0,4.879,3.948,8.828,8.828,8.828h123.586c4.879,0,8.828-3.948,8.828-8.828C326.621,498.293,322.673,494.345,317.793,494.345z"/>
<path style="fill:#FFE6AF;" d="M141.241,176.552c0,0,0,6.799,0,10.089c0,62.582,51.48,104.67,114.759,104.67
	s114.759-42.088,114.759-104.67c0-3.288,0-10.089,0-10.089H141.241z"/>
<path style="fill:#FFDC96;" d="M141.241,176.552c0,0,0,6.799,0,10.089c0,60.733,48.519,102.042,109.215,104.439
	c-29.056-25.614-47.422-62.861-47.422-104.439c0-3.278,0.074-6.657,0.184-10.089H141.241z"/>
<path style="fill:#FFFFFF;" d="M353.103,150.069c-0.151,0-0.29,0.041-0.44,0.044c-2.028-10.093-10.937-17.699-21.629-17.699
	c-8.842,0-16.413,5.234-19.935,12.743c-3.019-2.413-6.797-3.915-10.962-3.915s-7.943,1.502-10.962,3.915
	c-3.522-7.509-11.093-12.743-19.935-12.743c-7.441,0-13.988,3.709-17.986,9.35c-1.316-0.312-2.671-0.522-4.083-0.522
	c-3.309,0-6.369,0.968-9.015,2.551c-0.961-11.302-10.332-20.206-21.881-20.206c-10.691,0-19.601,7.606-21.629,17.699
	c-0.15-0.003-0.289-0.044-0.44-0.044c-1.411,0-2.766,0.209-4.083,0.522c-3.998-5.64-10.546-9.35-17.986-9.35
	c-11.476,0-20.797,8.793-21.859,19.99c-5.369,3.028-9.037,8.717-9.037,15.32v8.828h229.517v-8.828
	C370.759,157.973,362.854,150.069,353.103,150.069z"/>
<path style="fill:#E4EAF6;" d="M194.647,141.286c-0.15-0.003-0.289-0.044-0.44-0.044c-1.411,0-2.766,0.209-4.083,0.522
	c-3.998-5.64-10.546-9.35-17.986-9.35c-11.476,0-20.797,8.793-21.859,19.99c-5.369,3.028-9.037,8.717-9.037,15.32v8.828h61.977
	c0.493-15.287,2.141-32.19,5.454-51.62C201.56,127.543,196.168,133.715,194.647,141.286z"/>
<g>
	<circle style="fill:#FFFFFF;" cx="247.172" cy="220.69" r="8.828"/>
	<circle style="fill:#FFFFFF;" cx="291.31" cy="203.034" r="8.828"/>
</g>
<g>
	<circle style="fill:#FFE6AF;" cx="176.552" cy="211.862" r="8.828"/>
	<circle style="fill:#FFE6AF;" cx="194.207" cy="247.172" r="8.828"/>
</g>
<g>
	<circle style="fill:#FFFFFF;" cx="291.31" cy="247.172" r="8.828"/>
	<circle style="fill:#FFFFFF;" cx="335.448" cy="220.69" r="8.828"/>
</g>
<g>
</g>
<g>
</g>
<g>
</g>
<g>
</g>
<g>
</g>
<g>
</g>
<g>
</g>
<g>
</g>
<g>
</g>
<g>
</g>
<g>
</g>
<g>
</g>
<g>
</g>
<g>
</g>
<g>
</g>
</svg>
