<?xml version="1.0" encoding="iso-8859-1"?>
<!-- Generator: Adobe Illustrator 19.0.0, SVG Export Plug-In . SVG Version: 6.00 Build 0)  -->
<svg version="1.1" id="Layer_1" xmlns="http://www.w3.org/2000/svg" xmlns:xlink="http://www.w3.org/1999/xlink" x="0px" y="0px"
	 viewBox="0 0 512 512" style="enable-background:new 0 0 512 512;" xml:space="preserve">
<path style="fill:#FFEBEB;" d="M126.633,454.621h258.733c50.158-38.745,82.496-99.442,82.496-167.724
	c0-117.009-94.854-211.862-211.862-211.862S44.138,169.888,44.138,286.897C44.138,355.179,76.476,415.875,126.633,454.621z"/>
<path style="fill:#FFCECE;" d="M454.767,172.138c-2.438-4.222-7.837-5.668-12.059-3.231l-46.062,26.594
	c-12.797-19.652-29.599-36.454-49.251-49.251l26.594-46.062c2.438-4.222,0.991-9.621-3.231-12.058
	c-4.222-2.438-9.621-0.991-12.058,3.231l-26.583,46.042c-22.844-11.655-48.712-18.23-76.117-18.23s-53.273,6.575-76.117,18.23
	L153.3,91.36c-2.438-4.222-7.837-5.668-12.058-3.231c-4.222,2.438-5.668,7.837-3.231,12.058l26.594,46.062
	c-19.652,12.797-36.455,29.599-49.251,49.251l-46.062-26.594c-4.222-2.438-9.621-0.991-12.058,3.231
	c-2.438,4.222-0.991,9.621,3.231,12.058l46.042,26.583c-11.655,22.844-18.23,48.712-18.23,76.117
	c0,92.631,75.093,167.724,167.724,167.724s167.724-75.093,167.724-167.724c0-27.405-6.575-53.273-18.23-76.117l46.042-26.583
	C455.758,181.759,457.205,176.36,454.767,172.138z"/>
<path style="fill:#C7CFE2;" d="M397.241,454.621H114.759v-35.31c0-9.751,7.904-17.655,17.655-17.655h247.172
	c9.751,0,17.655,7.904,17.655,17.655V454.621z"/>
<path style="fill:#FF6464;" d="M379.586,401.655H132.414V286.897c0-68.255,55.331-123.586,123.586-123.586l0,0
	c68.255,0,123.586,55.331,123.586,123.586V401.655z"/>
<g>
	<path style="fill:#AFB9D2;" d="M406.069,481.103H105.931c-4.875,0-8.828-3.953-8.828-8.828v-8.828c0-4.875,3.953-8.828,8.828-8.828
		h300.138c4.875,0,8.828,3.953,8.828,8.828v8.828C414.897,477.151,410.944,481.103,406.069,481.103z"/>
	<path style="fill:#AFB9D2;" d="M220.69,401.655h-88.276c-9.75,0-17.655,7.904-17.655,17.655v35.31h88.276v-35.31
		C203.034,409.559,210.94,401.655,220.69,401.655z"/>
</g>
<path style="fill:#959CB3;" d="M194.207,472.276v-8.828c0-4.875,3.953-8.828,8.828-8.828h-97.103c-4.875,0-8.828,3.953-8.828,8.828
	v8.828c0,4.875,3.953,8.828,8.828,8.828h97.103C198.159,481.103,194.207,477.151,194.207,472.276z"/>
<path style="fill:#D2555A;" d="M284.925,166.854c-9.294-2.232-18.946-3.543-28.925-3.543c-68.255,0-123.586,55.331-123.586,123.586
	v114.759h88.276V286.897C220.69,228.62,248.095,179.894,284.925,166.854z"/>
<path style="fill:#FF937C;" d="M291.31,286.897c0-19.501-15.809-35.31-35.31-35.31s-35.31,15.809-35.31,35.31
	c0,15.332,9.83,28.253,23.486,33.131l-5.831,81.628h35.31l-5.831-81.628C281.481,315.148,291.31,302.228,291.31,286.897z"/>
<g>
	<path style="fill:#FFB1B1;" d="M512,286.897L512,286.897c0-4.875-3.953-8.828-8.828-8.828h-97.103
		c-4.875,0-8.828,3.953-8.828,8.828l0,0c0,4.875,3.953,8.828,8.828,8.828h97.103C508.047,295.724,512,291.772,512,286.897z"/>
	<path style="fill:#FFB1B1;" d="M0,286.897L0,286.897c0,4.875,3.953,8.828,8.828,8.828h97.103c4.875,0,8.828-3.953,8.828-8.828l0,0
		c0-4.875-3.953-8.828-8.828-8.828H8.828C3.953,278.069,0,282.022,0,286.897z"/>
	<path style="fill:#FFB1B1;" d="M256,30.897L256,30.897c-4.875,0-8.828,3.953-8.828,8.828v97.103c0,4.875,3.953,8.828,8.828,8.828
		l0,0c4.875,0,8.828-3.953,8.828-8.828V39.724C264.828,34.849,260.875,30.897,256,30.897z"/>
</g>
<g>
</g>
<g>
</g>
<g>
</g>
<g>
</g>
<g>
</g>
<g>
</g>
<g>
</g>
<g>
</g>
<g>
</g>
<g>
</g>
<g>
</g>
<g>
</g>
<g>
</g>
<g>
</g>
<g>
</g>
</svg>
