<?xml version="1.0" encoding="iso-8859-1"?>
<!-- Generator: Adobe Illustrator 19.0.0, SVG Export Plug-In . SVG Version: 6.00 Build 0)  -->
<svg version="1.1" id="Layer_1" xmlns="http://www.w3.org/2000/svg" xmlns:xlink="http://www.w3.org/1999/xlink" x="0px" y="0px"
	 viewBox="0 0 511.999 511.999" style="enable-background:new 0 0 511.999 511.999;" xml:space="preserve">
<path style="fill:#FFC36E;" d="M297.552,104.103l-29.069-29.069l20.242-20.242c3.448-3.448,3.448-9.035,0-12.483
	s-9.034-3.448-12.482,0L256,62.551l-20.242-20.242c-3.448-3.448-9.035-3.448-12.483,0s-3.448,9.035,0,12.483l20.242,20.242
	l-29.069,29.069c-3.448,3.448-3.448,9.035,0,12.483c1.725,1.725,3.982,2.586,6.241,2.586c2.259,0,4.518-0.862,6.241-2.586
	L256,87.516l29.069,29.069c1.725,1.725,3.982,2.586,6.241,2.586s4.518-0.862,6.241-2.586C301,113.137,301,107.552,297.552,104.103z"
	/>
<g>
	<circle style="fill:#FFD782;" cx="229.518" cy="48.551" r="17.655"/>
	<circle style="fill:#FFD782;" cx="282.483" cy="48.551" r="17.655"/>
</g>
<path style="fill:#AA6455;" d="M376.274,481.103H135.727c-32.838,0-62.961-18.227-78.198-47.315l-44.427-84.815
	c-17.469-33.349-17.469-73.148,0-106.497l44.427-84.815c15.238-29.089,45.361-47.316,78.198-47.316h240.547
	c32.837,0,62.961,18.227,78.197,47.315l44.427,84.815c17.469,33.351,17.469,73.148,0,106.497l-44.427,84.815
	C439.234,462.876,409.111,481.103,376.274,481.103z"/>
<g>
	<path style="fill:#9B5A50;" d="M507.274,311.642l-45.959,46.446C445.553,374.018,414.39,384,380.421,384H131.58
		c-33.97,0-65.132-9.982-80.895-25.911L4.726,311.642c-1.487-1.503-2.812-3.037-4.047-4.583
		c1.433,14.447,5.496,28.691,12.424,41.913l44.427,84.815c15.236,29.088,45.359,47.315,78.197,47.315h240.547
		c32.837,0,62.961-18.227,78.197-47.315l44.427-84.815c6.926-13.223,10.989-27.467,12.424-41.913
		C510.087,308.605,508.762,310.138,507.274,311.642z"/>
	<path style="fill:#9B5A50;" d="M466.757,181.114l-8.188-15.631c-1.302,0.69-2.707,1.009-4.086,1.009
		c-3.181,0-6.25-1.725-7.828-4.733c-13.759-26.268-40.733-42.586-70.379-42.586H135.724c-29.646,0-56.62,16.319-70.379,42.586
		c-1.576,3.007-4.643,4.743-7.823,4.743c-1.379,0-2.781-0.328-4.089-1.018l-8.192,15.639c0,0,0.006,0.006,0.01,0.007
		c3.731,1.97,7.996,3.027,12.271,3.027c9.881,0,18.872-5.442,23.463-14.202c10.701-20.434,31.677-33.126,54.74-33.126h240.552
		c23.063,0,44.039,12.692,54.74,33.123c4.593,8.759,13.583,14.196,23.467,14.196C458.753,184.146,462.993,183.093,466.757,181.114z"
		/>
</g>
<path style="fill:#FFD782;" d="M454.483,166.491c-3.181,0-6.25-1.725-7.828-4.733c-13.759-26.268-40.733-42.586-70.379-42.586
	H135.724c-29.646,0-56.62,16.319-70.379,42.586c-2.259,4.31-7.586,6.008-11.914,3.724c-4.319-2.259-5.992-7.595-3.724-11.914
	c16.819-32.104,49.775-52.052,86.017-52.052h240.552c36.242,0,69.198,19.948,86.017,52.052c2.268,4.319,0.595,9.655-3.724,11.914
	C457.267,166.172,455.862,166.491,454.483,166.491z"/>
<g>
</g>
<g>
</g>
<g>
</g>
<g>
</g>
<g>
</g>
<g>
</g>
<g>
</g>
<g>
</g>
<g>
</g>
<g>
</g>
<g>
</g>
<g>
</g>
<g>
</g>
<g>
</g>
<g>
</g>
</svg>
