<?xml version="1.0" encoding="iso-8859-1"?>
<!-- Generator: Adobe Illustrator 19.0.0, SVG Export Plug-In . SVG Version: 6.00 Build 0)  -->
<svg version="1.1" id="Layer_1" xmlns="http://www.w3.org/2000/svg" xmlns:xlink="http://www.w3.org/1999/xlink" x="0px" y="0px"
	 viewBox="0 0 512.001 512.001" style="enable-background:new 0 0 512.001 512.001;" xml:space="preserve">
<path style="fill:#A5EB78;" d="M371.723,17.362c2.123-0.191,4.289,0.568,5.817,2.095c1.531,1.531,2.3,3.665,2.095,5.82
	c-5.823,61.074-54.478,109.621-115.686,115.428c-0.231,0.021-0.46,0.035-0.688,0.035c-1.918,0-3.767-0.759-5.132-2.127
	c-1.531-1.531-2.3-3.665-2.095-5.82C261.857,71.711,310.51,23.168,371.723,17.362z"/>
<path style="fill:#8CD76E;" d="M263.948,140.704c-0.231,0.021-0.46,0.035-0.688,0.035c-1.918,0-3.767-0.759-5.132-2.127
	L377.383,19.358c0.045,0.043,0.112,0.054,0.157,0.098c1.531,1.531,2.3,3.665,2.095,5.82
	C373.811,86.352,325.157,134.899,263.948,140.704z"/>
<path style="fill:#A5EB78;" d="M133.714,0.037c-2.73-0.246-5.514,0.729-7.479,2.693c-1.969,1.969-2.958,4.713-2.693,7.483
	c7.487,78.524,70.043,140.942,148.739,148.407c0.296,0.028,0.593,0.045,0.884,0.045c2.466,0,4.844-0.975,6.6-2.734
	c1.969-1.969,2.958-4.713,2.693-7.483C274.97,69.916,212.416,7.503,133.714,0.037z"/>
<path style="fill:#8CD76E;" d="M272.281,158.62c0.296,0.028,0.593,0.045,0.884,0.045c2.466,0,4.844-0.975,6.6-2.734L126.436,2.604
	c-0.059,0.056-0.144,0.07-0.201,0.127c-1.969,1.969-2.958,4.713-2.693,7.483C131.03,88.738,193.584,151.156,272.281,158.62z"/>
<g>
	<path style="fill:#73BE73;" d="M282.501,167.499c-2.26,0-4.522-0.862-6.246-2.587l-106-105.999c-3.451-3.449-3.451-9.042,0-12.493
		c3.449-3.448,9.042-3.448,12.491,0l106,105.999c3.451,3.451,3.451,9.042,0,12.493C287.021,166.637,284.761,167.499,282.501,167.499
		z"/>
	<path style="fill:#73BE73;" d="M264.834,140.999c-2.26,0-4.522-0.862-6.246-2.587c-3.451-3.451-3.451-9.042,0-12.493l61.833-61.833
		c3.449-3.448,9.042-3.448,12.491,0c3.451,3.451,3.451,9.042,0,12.493l-61.833,61.833
		C269.354,140.137,267.094,140.999,264.834,140.999z"/>
</g>
<path style="fill:#FF6464;" d="M423.834,267.953C423.834,371.981,335.097,512,256.001,512S88.167,371.98,88.167,267.953
	s75.142-144.621,167.834-144.621S423.834,163.926,423.834,267.953z"/>
<g>
	<path style="fill:#D2555A;" d="M229.5,176.334L229.5,176.334c-4.878,0-8.833-3.955-8.833-8.833v-17.667
		c0-4.878,3.955-8.833,8.833-8.833l0,0c4.878,0,8.833,3.955,8.833,8.833V167.5C238.334,172.378,234.379,176.334,229.5,176.334z"/>
	<path style="fill:#D2555A;" d="M203,229.334L203,229.334c-4.878,0-8.833-3.955-8.833-8.833v-17.667
		c0-4.878,3.955-8.833,8.833-8.833l0,0c4.878,0,8.833,3.955,8.833,8.833V220.5C211.834,225.379,207.879,229.334,203,229.334z"/>
	<path style="fill:#D2555A;" d="M203,335.333L203,335.333c-4.878,0-8.833-3.955-8.833-8.833v-17.667
		c0-4.878,3.955-8.833,8.833-8.833l0,0c4.878,0,8.833,3.955,8.833,8.833v17.667C211.834,331.379,207.879,335.333,203,335.333z"/>
	<path style="fill:#D2555A;" d="M229.5,494.333L229.5,494.333c-4.878,0-8.833-3.955-8.833-8.833v-17.667
		c0-4.878,3.955-8.833,8.833-8.833l0,0c4.878,0,8.833,3.955,8.833,8.833V485.5C238.334,490.379,234.379,494.333,229.5,494.333z"/>
	<path style="fill:#D2555A;" d="M194.167,267.953c0-91.125,40.97-133.567,95.4-142.695c-10.847-1.293-22.07-1.925-33.567-1.925
		c-92.692,0-167.834,40.593-167.834,144.621s88.738,244.047,167.834,244.047c5.207,0,10.459-0.643,15.721-1.806
		C222.215,493.683,194.167,365.132,194.167,267.953z"/>
	<path style="fill:#D2555A;" d="M256.001,229.334L256.001,229.334c-4.878,0-8.833-3.955-8.833-8.833v-17.667
		c0-4.878,3.955-8.833,8.833-8.833l0,0c4.878,0,8.833,3.955,8.833,8.833V220.5C264.834,225.379,260.879,229.334,256.001,229.334z"/>
	<path style="fill:#D2555A;" d="M309.001,229.334L309.001,229.334c-4.878,0-8.833-3.955-8.833-8.833v-17.667
		c0-4.878,3.955-8.833,8.833-8.833l0,0c4.878,0,8.833,3.955,8.833,8.833V220.5C317.834,225.379,313.879,229.334,309.001,229.334z"/>
	<path style="fill:#D2555A;" d="M362.001,229.334L362.001,229.334c-4.878,0-8.833-3.955-8.833-8.833v-17.667
		c0-4.878,3.955-8.833,8.833-8.833l0,0c4.878,0,8.833,3.955,8.833,8.833V220.5C370.834,225.379,366.879,229.334,362.001,229.334z"/>
</g>
<path style="fill:#C04150;" d="M150,229.334L150,229.334c-4.878,0-8.833-3.955-8.833-8.833v-17.667c0-4.878,3.955-8.833,8.833-8.833
	l0,0c4.878,0,8.833,3.955,8.833,8.833V220.5C158.834,225.379,154.878,229.334,150,229.334z"/>
<g>
	<path style="fill:#D2555A;" d="M256.001,335.333L256.001,335.333c-4.878,0-8.833-3.955-8.833-8.833v-17.667
		c0-4.878,3.955-8.833,8.833-8.833l0,0c4.878,0,8.833,3.955,8.833,8.833v17.667C264.834,331.379,260.879,335.333,256.001,335.333z"
		/>
	<path style="fill:#D2555A;" d="M309.001,335.333L309.001,335.333c-4.878,0-8.833-3.955-8.833-8.833v-17.667
		c0-4.878,3.955-8.833,8.833-8.833l0,0c4.878,0,8.833,3.955,8.833,8.833v17.667C317.834,331.379,313.879,335.333,309.001,335.333z"
		/>
	<path style="fill:#D2555A;" d="M362.001,335.333L362.001,335.333c-4.878,0-8.833-3.955-8.833-8.833v-17.667
		c0-4.878,3.955-8.833,8.833-8.833l0,0c4.878,0,8.833,3.955,8.833,8.833v17.667C370.834,331.379,366.879,335.333,362.001,335.333z"
		/>
</g>
<path style="fill:#C04150;" d="M150,335.333L150,335.333c-4.878,0-8.833-3.955-8.833-8.833v-17.667c0-4.878,3.955-8.833,8.833-8.833
	l0,0c4.878,0,8.833,3.955,8.833,8.833v17.667C158.834,331.379,154.878,335.333,150,335.333z"/>
<g>
	<path style="fill:#D2555A;" d="M282.501,282.333L282.501,282.333c-4.878,0-8.833-3.955-8.833-8.833v-17.667
		c0-4.878,3.955-8.833,8.833-8.833l0,0c4.878,0,8.833,3.955,8.833,8.833v17.667C291.334,278.379,287.379,282.333,282.501,282.333z"
		/>
	<path style="fill:#D2555A;" d="M335.501,282.333L335.501,282.333c-4.878,0-8.833-3.955-8.833-8.833v-17.667
		c0-4.878,3.955-8.833,8.833-8.833l0,0c4.878,0,8.833,3.955,8.833,8.833v17.667C344.334,278.379,340.379,282.333,335.501,282.333z"
		/>
	<path style="fill:#D2555A;" d="M388.501,282.333L388.501,282.333c-4.878,0-8.833-3.955-8.833-8.833v-17.667
		c0-4.878,3.955-8.833,8.833-8.833l0,0c4.878,0,8.833,3.955,8.833,8.833v17.667C397.334,278.379,393.379,282.333,388.501,282.333z"
		/>
</g>
<path style="fill:#C04150;" d="M176.5,282.333L176.5,282.333c-4.878,0-8.833-3.955-8.833-8.833v-17.667
	c0-4.878,3.955-8.833,8.833-8.833l0,0c4.878,0,8.833,3.955,8.833,8.833v17.667C185.334,278.379,181.379,282.333,176.5,282.333z"/>
<path style="fill:#D2555A;" d="M229.5,282.333L229.5,282.333c-4.878,0-8.833-3.955-8.833-8.833v-17.667
	c0-4.878,3.955-8.833,8.833-8.833l0,0c4.878,0,8.833,3.955,8.833,8.833v17.667C238.334,278.379,234.379,282.333,229.5,282.333z"/>
<path style="fill:#C04150;" d="M123.5,282.333L123.5,282.333c-4.878,0-8.833-3.955-8.833-8.833v-17.667
	c0-4.878,3.955-8.833,8.833-8.833l0,0c4.878,0,8.833,3.955,8.833,8.833v17.667C132.334,278.379,128.378,282.333,123.5,282.333z"/>
<g>
	<path style="fill:#D2555A;" d="M282.501,176.334L282.501,176.334c-4.878,0-8.833-3.955-8.833-8.833v-17.667
		c0-4.878,3.955-8.833,8.833-8.833l0,0c4.878,0,8.833,3.955,8.833,8.833V167.5C291.334,172.378,287.379,176.334,282.501,176.334z"/>
	<path style="fill:#D2555A;" d="M335.501,176.334L335.501,176.334c-4.878,0-8.833-3.955-8.833-8.833v-17.667
		c0-4.878,3.955-8.833,8.833-8.833l0,0c4.878,0,8.833,3.955,8.833,8.833V167.5C344.334,172.378,340.379,176.334,335.501,176.334z"/>
</g>
<path style="fill:#C04150;" d="M176.5,176.334L176.5,176.334c-4.878,0-8.833-3.955-8.833-8.833v-17.667
	c0-4.878,3.955-8.833,8.833-8.833l0,0c4.878,0,8.833,3.955,8.833,8.833V167.5C185.334,172.378,181.379,176.334,176.5,176.334z"/>
<g>
	<path style="fill:#D2555A;" d="M256.001,441.333L256.001,441.333c-4.878,0-8.833-3.955-8.833-8.833v-17.667
		c0-4.878,3.955-8.833,8.833-8.833l0,0c4.878,0,8.833,3.955,8.833,8.833V432.5C264.834,437.379,260.879,441.333,256.001,441.333z"/>
	<path style="fill:#D2555A;" d="M309.001,441.333L309.001,441.333c-4.878,0-8.833-3.955-8.833-8.833v-17.667
		c0-4.878,3.955-8.833,8.833-8.833l0,0c4.878,0,8.833,3.955,8.833,8.833V432.5C317.834,437.379,313.879,441.333,309.001,441.333z"/>
</g>
<path style="fill:#C04150;" d="M203,441.333L203,441.333c-4.878,0-8.833-3.955-8.833-8.833v-17.667c0-4.878,3.955-8.833,8.833-8.833
	l0,0c4.878,0,8.833,3.955,8.833,8.833V432.5C211.834,437.379,207.879,441.333,203,441.333z"/>
<g>
	<path style="fill:#D2555A;" d="M282.501,494.333L282.501,494.333c-4.878,0-8.833-3.955-8.833-8.833v-17.667
		c0-4.878,3.955-8.833,8.833-8.833l0,0c4.878,0,8.833,3.955,8.833,8.833V485.5C291.334,490.379,287.379,494.333,282.501,494.333z"/>
	<path style="fill:#D2555A;" d="M282.501,388.333L282.501,388.333c-4.878,0-8.833-3.955-8.833-8.833v-17.667
		c0-4.878,3.955-8.833,8.833-8.833l0,0c4.878,0,8.833,3.955,8.833,8.833V379.5C291.334,384.379,287.379,388.333,282.501,388.333z"/>
	<path style="fill:#D2555A;" d="M335.501,388.333L335.501,388.333c-4.878,0-8.833-3.955-8.833-8.833v-17.667
		c0-4.878,3.955-8.833,8.833-8.833l0,0c4.878,0,8.833,3.955,8.833,8.833V379.5C344.334,384.379,340.379,388.333,335.501,388.333z"/>
</g>
<path style="fill:#C04150;" d="M176.5,388.333L176.5,388.333c-4.878,0-8.833-3.955-8.833-8.833v-17.667
	c0-4.878,3.955-8.833,8.833-8.833l0,0c4.878,0,8.833,3.955,8.833,8.833V379.5C185.334,384.379,181.379,388.333,176.5,388.333z"/>
<g>
	<path style="fill:#D2555A;" d="M229.5,388.333L229.5,388.333c-4.878,0-8.833-3.955-8.833-8.833v-17.667
		c0-4.878,3.955-8.833,8.833-8.833l0,0c4.878,0,8.833,3.955,8.833,8.833V379.5C238.334,384.379,234.379,388.333,229.5,388.333z"/>
	<path style="fill:#D2555A;" d="M388.501,176.334c1.88,0,3.528-0.718,4.96-1.72c-4.209-4.978-8.853-9.498-13.793-13.697v6.584
		C379.668,172.377,383.623,176.334,388.501,176.334z"/>
</g>
<g>
	<path style="fill:#C04150;" d="M118.539,174.612c1.432,1.003,3.08,1.72,4.961,1.72c4.878,0,8.833-3.955,8.833-8.833v-6.583
		C127.392,165.115,122.748,169.636,118.539,174.612z"/>
	<path style="fill:#C04150;" d="M97,229.334c4.878,0,8.833-3.955,8.833-8.833v-17.667c0-2.176-0.875-4.101-2.18-5.641
		c-4.736,9.285-8.471,19.52-11.066,30.791C93.906,228.763,95.357,229.334,97,229.334z"/>
	<path style="fill:#C04150;" d="M98.575,335.015c4.098-0.766,7.259-4.196,7.259-8.515v-17.667c0-4.878-3.955-8.833-8.833-8.833
		c-2.271,0-4.294,0.919-5.859,2.326C92.895,313.116,95.401,324.06,98.575,335.015z"/>
	<path style="fill:#C04150;" d="M123.5,353c-4.878,0-8.833,3.955-8.833,8.833v16.815c1.176,2.619,2.395,5.214,3.635,7.803
		c1.474,1.104,3.214,1.882,5.198,1.882c4.878,0,8.833-3.955,8.833-8.833v-17.667C132.334,356.955,128.378,353,123.5,353z"/>
	<path style="fill:#C04150;" d="M150,406c-4.878,0-8.833,3.955-8.833,8.833v12.204c3.182,4.837,6.469,9.531,9.84,14.092
		c4.381-0.522,7.826-4.11,7.826-8.63v-17.667C158.834,409.955,154.878,406,150,406z"/>
	<path style="fill:#C04150;" d="M185.334,479.288v-11.455c0-4.878-3.955-8.833-8.833-8.833c-3.167,0-5.816,1.758-7.375,4.261
		C174.398,469.03,179.816,474.371,185.334,479.288z"/>
</g>
<g>
	<path style="fill:#D2555A;" d="M408.346,197.192c-1.306,1.54-2.18,3.465-2.18,5.641V220.5c0,4.878,3.955,8.833,8.833,8.833
		c1.642,0,3.095-0.57,4.412-1.35C416.818,216.712,413.081,206.476,408.346,197.192z"/>
	<path style="fill:#D2555A;" d="M415.001,299.999c-4.878,0-8.833,3.955-8.833,8.833v17.667c0,4.32,3.161,7.749,7.259,8.515
		c3.173-10.954,5.679-21.899,7.433-32.689C419.294,300.918,417.271,299.999,415.001,299.999z"/>
	<path style="fill:#D2555A;" d="M397.334,361.833c0-4.878-3.955-8.833-8.833-8.833c-4.878,0-8.833,3.955-8.833,8.833V379.5
		c0,4.878,3.955,8.833,8.833,8.833c1.984,0,3.724-0.776,5.2-1.882c1.239-2.589,2.459-5.184,3.634-7.803V361.833z"/>
	<path style="fill:#D2555A;" d="M370.834,414.833c0-4.878-3.955-8.833-8.833-8.833c-4.878,0-8.833,3.955-8.833,8.833V432.5
		c0,4.52,3.445,8.108,7.826,8.63c3.371-4.561,6.658-9.254,9.84-14.092V414.833z"/>
	<path style="fill:#D2555A;" d="M342.875,463.261c-1.56-2.503-4.209-4.261-7.375-4.261c-4.878,0-8.833,3.955-8.833,8.833v11.455
		C332.184,474.371,337.603,469.03,342.875,463.261z"/>
</g>
<g>
	<path style="fill:#C04150;" d="M220.667,467.833V485.5c0,4.878,3.955,8.833,8.833,8.833s8.833-3.955,8.833-8.833v-7.131
		c-3.464-5.81-6.743-12.223-9.823-19.171C224.121,459.713,220.667,463.306,220.667,467.833z"/>
	<path style="fill:#C04150;" d="M198.002,333.587c-1.099-9.713-1.964-19.419-2.593-29.007c-0.721,1.28-1.242,2.679-1.242,4.252
		V326.5C194.167,329.481,195.74,331.987,198.002,333.587z"/>
	<path style="fill:#C04150;" d="M194.167,202.834V220.5c0,2.735,1.316,5.086,3.269,6.706c2.007-11.982,4.877-22.867,8.607-32.592
		C205.087,194.26,204.079,194,203,194C198.121,194,194.167,197.954,194.167,202.834z"/>
	<path style="fill:#C04150;" d="M229.5,141c-4.878,0-8.833,3.955-8.833,8.833v17.215c5.166-7.208,11.001-13.404,17.362-18.729
		C237.286,144.191,233.842,141,229.5,141z"/>
</g>
<g>
</g>
<g>
</g>
<g>
</g>
<g>
</g>
<g>
</g>
<g>
</g>
<g>
</g>
<g>
</g>
<g>
</g>
<g>
</g>
<g>
</g>
<g>
</g>
<g>
</g>
<g>
</g>
<g>
</g>
</svg>
