<?xml version="1.0" encoding="iso-8859-1"?>
<!-- Generator: Adobe Illustrator 19.0.0, SVG Export Plug-In . SVG Version: 6.00 Build 0)  -->
<svg version="1.1" id="Layer_1" xmlns="http://www.w3.org/2000/svg" xmlns:xlink="http://www.w3.org/1999/xlink" x="0px" y="0px"
	 viewBox="0 0 512 512" style="enable-background:new 0 0 512 512;" xml:space="preserve">
<g>
	<path style="fill:#707487;" d="M123.586,512h-35.31c-4.875,0-8.828-3.953-8.828-8.828v-17.655h52.966v17.655
		C132.414,508.047,128.461,512,123.586,512z"/>
	<path style="fill:#707487;" d="M423.724,512h-35.31c-4.875,0-8.828-3.953-8.828-8.828v-17.655h52.966v17.655
		C432.552,508.047,428.599,512,423.724,512z"/>
</g>
<path style="fill:#959CB3;" d="M432.552,494.345H79.448c-14.626,0-26.483-11.857-26.483-26.483V26.483
	C52.966,11.857,64.822,0,79.448,0h353.103c14.626,0,26.483,11.857,26.483,26.483v441.379
	C459.034,482.488,447.178,494.345,432.552,494.345z"/>
<path style="fill:#AFB9D2;" d="M414.897,459.034H97.103c-4.875,0-8.828-3.953-8.828-8.828V44.138c0-4.875,3.953-8.828,8.828-8.828
	h317.793c4.875,0,8.828,3.953,8.828,8.828v406.069C423.724,455.082,419.772,459.034,414.897,459.034z"/>
<path style="fill:#707487;" d="M88.276,150.069L88.276,150.069c-4.875,0-8.828-3.953-8.828-8.828V88.276
	c0-4.875,3.953-8.828,8.828-8.828l0,0c4.875,0,8.828,3.953,8.828,8.828v52.966C97.103,146.116,93.151,150.069,88.276,150.069z"/>
<rect x="79.448" y="105.931" style="fill:#5B5D6E;" width="17.655" height="17.655"/>
<path style="fill:#707487;" d="M88.276,414.897L88.276,414.897c-4.875,0-8.828-3.953-8.828-8.828v-52.966
	c0-4.875,3.953-8.828,8.828-8.828l0,0c4.875,0,8.828,3.953,8.828,8.828v52.966C97.103,410.944,93.151,414.897,88.276,414.897z"/>
<rect x="79.448" y="370.759" style="fill:#5B5D6E;" width="17.655" height="17.655"/>
<g>
	<circle style="fill:#707487;" cx="256" cy="256" r="70.621"/>
	<circle style="fill:#707487;" cx="375.172" cy="256" r="26.483"/>
</g>
<circle style="fill:#5B5D6E;" cx="256" cy="256" r="44.138"/>
<path style="fill:#707487;" d="M291.476,253.461l-10.253-5.127c-3.305-10.861-13.281-18.817-25.223-18.817
	c-14.626,0-26.483,11.857-26.483,26.483s11.857,26.483,26.483,26.483c11.942,0,21.918-7.956,25.221-18.818l10.253-5.127
	C293.567,257.492,293.567,254.507,291.476,253.461z"/>
<path style="fill:#959CB3;" d="M375.172,353.103L375.172,353.103c-7.313,0-13.241-5.929-13.241-13.241v-79.448
	c0-7.313,5.929-13.241,13.241-13.241l0,0c7.313,0,13.241,5.929,13.241,13.241v79.448
	C388.414,347.175,382.485,353.103,375.172,353.103z"/>
<g>
</g>
<g>
</g>
<g>
</g>
<g>
</g>
<g>
</g>
<g>
</g>
<g>
</g>
<g>
</g>
<g>
</g>
<g>
</g>
<g>
</g>
<g>
</g>
<g>
</g>
<g>
</g>
<g>
</g>
</svg>
