<svg height="512pt" viewBox="0 -44 512.00123 512" width="512pt" xmlns="http://www.w3.org/2000/svg"><path d="m512 24.679688c.078125 10.230468-4.101562 20.035156-11.53125 27.066406-7.433594 7.027344-17.453125 10.65625-27.664062 10.011718h-135.0625l33.457031 20.039063c8.007812 4.859375 13.542969 12.925781 15.195312 22.148437 1.65625 9.21875-.726562 18.707032-6.542969 26.050782l-9.550781 12.09375c-2.039062 2.574218-3.707031 5.425781-4.953125 8.464844l-3.417968 8.304687c5.296874 7.859375 10.417968 7.152344 5.386718 15.363281-10.949218 15.636719-26.835937 27.136719-45.109375 32.660156h-.175781c-.363281 1.984376-.988281 3.914063-1.855469 5.738282l-14.566406 29.132812c-7.144531 14.492188-20.4375 24.996094-36.191406 28.597656-15.359375 3.621094-38.3125 8.210938-69.382813 13.066407l-.089844-.089844c-3.332031 3.402344-7.035156 6.421875-11.035156 9.007813-20.253906 13.46875-43.839844 21.074218-68.148437 21.980468-4.570313.101563-8.917969 2.003906-12.09375 5.292969-13.066407 13.332031-48.816407 58.527344-93.75 101.609375-2.550781 2.429688-6.304688 3.113281-9.550781 1.730469-3.242188-1.382813-5.3554692-4.5625-5.367188-8.089844v-201.53125c-.0273438-5.695313 2.746094-11.042969 7.414062-14.300781 81.832032-58.441406 156.515626-134.355469 187.324219-181.585938 3.40625-5.273437 9.023438-8.714844 15.269531-9.355468l88.628907-6.089844c35.117187-2.398438 70.347656-2.632813 105.492187-.707032l89.421875 1.765626c10.644531 1.667968 18.480469 10.851562 18.449219 21.625zm0 0" fill="#fdd7ad"/><path d="m176.550781 108.101562c-3.5 0-6.671875-2.066406-8.082031-5.273437-1.40625-3.207031-.789062-6.941406 1.578125-9.519531 3-3.277344 5.902344-6.515625 8.703125-9.710938 2.035156-2.527344 5.292969-3.734375 8.484375-3.144531 3.191406.59375 5.800781 2.890625 6.792969 5.980469.996094 3.089844.210937 6.476562-2.035156 8.816406-2.890626 3.285156-5.875 6.609375-8.953126 9.972656-1.664062 1.828125-4.015624 2.871094-6.488281 2.878906zm0 0" fill="#fee7ce"/><path d="m33.394531 234.523438c-3.835937 0-7.234375-2.472657-8.410156-6.125-1.175781-3.652344.144531-7.648438 3.265625-9.878907 41.09375-29.507812 79.765625-62.253906 115.640625-97.925781 3.472656-3.335938 8.980469-3.273438 12.375.140625s3.425781 8.921875.070313 12.375c-36.535157 36.339844-75.917969 69.699219-117.777344 99.753906-1.5 1.085938-3.308594 1.667969-5.164063 1.660157zm0 0" fill="#fee7ce"/><g fill="#cbb292"><path d="m367.316406 174.222656c-8.648437 12.636719-20.710937 22.554688-34.78125 28.601563 7.058594-5.039063 13.105469-11.355469 17.832032-18.628907 3.363281-5.789062 4.457031-12.621093 3.0625-19.171874-1.628907-6.082032-5.761719-11.1875-11.371094-14.054688l-28.875-20.304688-45.179688-31.652343c-3.710937-2.878907-4.519531-8.160157-1.839844-12.015625 2.683594-3.859375 7.914063-4.941406 11.90625-2.464844l50.625 35.363281c9.375 6.5625 18.753907 13.109375 28.140626 19.644531 5.539062 3.023438 10.046874 7.632813 12.941406 13.238282 2.273437 7.171875 1.378906 14.972656-2.460938 21.445312zm0 0"/><path d="m322.207031 207.414062c-.539062 2.523438-1.273437 5.007813-2.1875 7.421876-8.574219 22.863281-23.394531 49.363281-47.960937 54.792968 3.53125-1.171875 9.832031-10.105468 11.96875-13.300781 3.738281-5.539063 7.058594-11.351563 9.929687-17.382813 6.414063-11.449218 9.890625-24.308593 10.128907-37.429687-.882813-9.207031-7.664063-14.378906-13.753907-20.480469l-17.972656-18-24.144531-24.1875c-3.421875-3.441406-3.421875-9.003906 0-12.445312 3.46875-3.441406 9.066406-3.441406 12.535156 0l53.9375 54.023437c7.175781 6.988281 10.046875 17.292969 7.519531 26.988281zm0 0"/><path d="m379.851562 129.996094-3.53125 4.414062c4.449219-14.289062-1.414062-29.765625-14.210937-37.519531l-33.457031-20.039063-24.984375-15.003906c-2.011719-1.199218-3.457031-3.152344-4.023438-5.421875-.5625-2.273437-.195312-4.675781 1.023438-6.671875 2.515625-4.164062 7.921875-5.503906 12.09375-3.003906l24.980469 15.007812 25.25 15.09375 8.207031 4.945313c8.007812 4.859375 13.542969 12.925781 15.195312 22.148437 1.65625 9.21875-.726562 18.707032-6.542969 26.050782zm0 0"/><path d="m275.597656 203.175781c0 4.875-3.953125 8.828125-8.828125 8.828125-9.40625.371094-18.714843 2.097656-27.628906 5.117188-1.480469 4.445312-3.957031 8.492187-7.238281 11.832031l-13.597656 13.59375c-.511719 8.601563-2.761719 17.011719-6.617188 24.71875-3.023438 5.953125-6.988281 11.375-11.742188 16.0625l-.089843.089844c-3.300781 3.371093-6.972657 6.363281-10.945313 8.917969-20.253906 13.46875-43.839844 21.074218-68.148437 21.980468-4.570313.101563-8.917969 2.003906-12.09375 5.292969-13.066407 13.332031-48.816407 58.527344-93.75 101.609375-2.550781 2.429688-6.304688 3.113281-9.550781 1.730469-3.242188-1.382813-5.3554692-4.5625-5.367188-8.089844v-4.148437c.882812-.425782 1.6875-.992188 2.382812-1.675782 44.933594-43.078125 80.683594-88.277344 93.75-101.605468 3.175782-3.289063 7.523438-5.191407 12.09375-5.296876 24.316407-.859374 47.914063-8.46875 68.148438-21.980468 3.542969-2.296875 6.851562-4.925782 9.886719-7.855469.363281-.539063.777343-1.042969 1.238281-1.503906 8.613281-8.457031 13.425781-20.054688 13.328125-32.128907v-.265624c.421875-4.132813-.605469-8.285157-2.914063-11.742188-3.339843-3.558594-3.160156-9.152344.398438-12.492188 3.558594-3.339843 9.152344-3.160156 12.492188.398438 1.652343 1.929688 3.046874 4.066406 4.148437 6.355469l4.414063-4.414063c1.746093-1.734375 2.941406-3.945312 3.441406-6.355468-.011719-.097657.019531-.195313.089844-.265626.113281-.371093.144531-.761718.085937-1.144531.25-1.5.191406-3.03125-.175781-4.503906l-7.945313-31.425781c-.578125-2.257813-.234375-4.65625.957031-6.660156 1.195313-2.007813 3.136719-3.453126 5.398438-4.019532 2.273438-.589844 4.683594-.253906 6.707031.941406 2.019531 1.191407 3.480469 3.140626 4.0625 5.414063l7.59375 30.011719c8.863281-2.464844 17.992188-3.859375 27.1875-4.148438 2.339844 0 4.585938.929688 6.242188 2.585938s2.585937 3.902344 2.585937 6.242187zm0 0"/></g></svg>