<svg height="510pt" viewBox="-74 0 510 510.76946" width="510pt" xmlns="http://www.w3.org/2000/svg"><path d="m326.546875 113.527344c19.597656.578125 35.21875 16.585937 35.308594 36.195312v116.46875s2.914062 43.503906-22.113281 69.863282c-13.765626 16.34375-21.550782 36.894531-22.070313 58.261718l.046875 22.695313v70.46875c-.039062 12.847656-10.441406 23.25-23.289062 23.289062h-191.769532c-12.84375-.039062-23.25-10.441406-23.289062-23.289062v-125.199219l-.5-3.160156c-1.320313-8.316406-5.734375-15.828125-12.359375-21.027344l-.097657-.082031c-16.960937-14.097657-28.402343-33.730469-32.308593-55.433594-2.207031-18.1875-8.121094-63.648437-9.445313-90.835937zm0 0" fill="#fdd7ad"/><path d="m281.523438 484.285156h-14.378907c-4.875 0-8.828125-3.949218-8.828125-8.824218 0-4.878907 3.953125-8.828126 8.828125-8.828126h14.378907c4.875 0 8.828124 3.949219 8.828124 8.828126 0 4.875-3.953124 8.824218-8.828124 8.824218zm0 0" fill="#fee7ce"/><path d="m229.441406 484.285156h-114.757812c-4.875 0-8.828125-3.949218-8.828125-8.824218 0-4.878907 3.953125-8.828126 8.828125-8.828126h114.757812c4.875 0 8.828125 3.949219 8.828125 8.828126 0 4.875-3.953125 8.824218-8.828125 8.824218zm0 0" fill="#fee7ce"/><path d="m172.152344 192.976562c-1.925782 11.148438-9.226563 20.625-19.511719 25.335938-17.503906 8.117188-38.273437.535156-46.433594-16.949219l-58.789062-126.765625c-5.957031-12.863281-3.511719-28.054687 6.179687-38.398437 3.015625-3.40625 6.714844-6.144531 10.855469-8.035157 8.402344-3.917968 18.019531-4.324218 26.71875-1.128906 8.703125 3.199219 15.765625 9.738282 19.628906 18.167969l58.789063 126.761719c3.09375 6.546875 3.992187 13.914062 2.5625 21.011718zm0 0" fill="#cbb292"/><path d="m172.152344 192.976562c-3.019532 3.40625-6.71875 6.144532-10.859375 8.03125-8.402344 3.90625-18.015625 4.304688-26.710938 1.105469-8.695312-3.195312-15.761719-9.722656-19.632812-18.140625l-58.792969-126.765625c-3.09375-6.542969-3.992188-13.914062-2.558594-21.007812 3.015625-3.40625 6.714844-6.144531 10.855469-8.035157 8.402344-3.917968 18.019531-4.324218 26.71875-1.128906 8.703125 3.199219 15.765625 9.738282 19.628906 18.167969l58.789063 126.761719c3.09375 6.546875 3.992187 13.914062 2.5625 21.011718zm0 0" fill="#fdd7ad"/><path d="m225.910156 146.730469c-1.925781 11.144531-9.222656 20.625-19.507812 25.332031-17.503906 8.117188-38.277344.535156-46.433594-16.949219l-47.105469-100.28125c-5.953125-12.863281-3.511719-28.054687 6.179688-38.398437 3.019531-3.40625 6.71875-6.144532 10.859375-8.035156 8.398437-3.917969 18.015625-4.324219 26.71875-1.125 8.699218 3.195312 15.765625 9.734374 19.625 18.164062l47.132812 100.28125c3.082032 6.546875 3.972656 13.917969 2.53125 21.011719zm0 0" fill="#cbb292"/><path d="m225.910156 146.730469c-3.019531 3.40625-6.714844 6.140625-10.859375 8.03125-8.402343 3.902343-18.011719 4.300781-26.707031 1.105469-8.699219-3.199219-15.761719-9.726563-19.636719-18.144532l-47.101562-100.28125c-3.097657-6.546875-3.996094-13.917968-2.5625-21.015625 3.019531-3.40625 6.71875-6.144531 10.859375-8.035156 8.398437-3.921875 18.015625-4.328125 26.71875-1.128906 8.699218 3.199219 15.765625 9.738281 19.625 18.167969l47.132812 100.28125c3.085938 6.550781 3.972656 13.921874 2.53125 21.019531zm0 0" fill="#fdd7ad"/><path d="m303.425781 161.601562c-2.601562 11.011719-10.464843 20.027344-21.019531 24.101563-17.96875 7.03125-38.242188-1.808594-45.3125-19.765625l-46.246094-118.203125c-5.15625-13.203125-1.789062-28.214844 8.507813-37.957031 3.226562-3.214844 7.085937-5.71875 11.335937-7.351563 8.628906-3.402343 18.253906-3.21875 26.746094.507813 8.492188 3.722656 15.144531 10.683594 18.488281 19.335937l46.246094 118.210938c2.6875 6.71875 3.125 14.128906 1.253906 21.121093zm0 0" fill="#cbb292"/><path d="m303.425781 161.601562c-3.21875 3.21875-7.078125 5.726563-11.324219 7.355469-8.625 3.382813-18.242187 3.191407-26.726562-.53125-8.484375-3.722656-15.136719-10.667969-18.488281-19.304687l-46.257813-118.210938c-2.6875-6.722656-3.132812-14.136718-1.273437-21.132812 3.226562-3.214844 7.085937-5.71875 11.335937-7.351563 8.628906-3.402343 18.253906-3.21875 26.746094.507813 8.492188 3.722656 15.144531 10.683594 18.488281 19.335937l46.246094 118.210938c2.6875 6.71875 3.125 14.128906 1.253906 21.121093zm0 0" fill="#fdd7ad"/><path d="m121.570312 252.296875c-2.269531 10.613281-9.398437 19.539063-19.246093 24.101563-8.414063 3.910156-18.039063 4.3125-26.753907 1.117187-8.710937-3.195313-15.792968-9.730469-19.679687-18.15625l-52.257813-113.167969c-5.976562-12.789062-3.5664058-27.925781 6.089844-38.226562 3.023438-3.460938 6.757813-6.230469 10.945313-8.121094 8.390625-3.914062 17.996093-4.324219 26.691406-1.144531 8.695313 3.179687 15.769531 9.691406 19.65625 18.09375l52.257813 113.171875c3.277343 6.96875 4.085937 14.84375 2.296874 22.332031zm0 0" fill="#cbb292"/><path d="m121.570312 252.296875c-3.105468 3.351563-6.820312 6.078125-10.949218 8.035156-8.390625 3.898438-17.992188 4.304688-26.683594 1.125-8.691406-3.179687-15.761719-9.679687-19.660156-18.074219l-52.257813-113.171874c-3.277343-6.9375-4.085937-14.785157-2.296875-22.246094 3.023438-3.460938 6.757813-6.230469 10.945313-8.121094 8.390625-3.914062 17.996093-4.324219 26.691406-1.144531 8.695313 3.179687 15.769531 9.691406 19.65625 18.09375l52.257813 113.171875c3.277343 6.96875 4.085937 14.84375 2.296874 22.332031zm0 0" fill="#fdd7ad"/><path d="m235.832031 280.882812c-3.253906-.003906-6.242187-1.796874-7.777343-4.667968-1.535157-2.871094-1.363282-6.351563.441406-9.058594 17.054687-25.601562 34.789062-34.332031 45.082031-37.324219v-45.683593c0-4.875 3.953125-8.828126 8.828125-8.828126s8.828125 3.953126 8.828125 8.828126v52.964843c0 4.875-3.953125 8.828125-8.828125 8.828125-.617188 0-19.289062 1.105469-39.21875 31.003906-1.640625 2.460938-4.398438 3.9375-7.355469 3.9375zm0 0" fill="#cbb292"/><path d="m326.546875 113.527344-20.570313 61.792968-5.914062 8.828126-89.246094 8.828124c-12.035156.003907-23.578125-4.773437-32.089844-13.285156-8.511718-8.511718-13.289062-20.054687-13.285156-32.089844-.007812-9.039062 3.582032-17.707031 9.976563-24.097656 6.363281-6.429687 15.050781-10.027344 24.097656-9.976562zm0 0" fill="#fdd7ad"/><path d="m317.347656 186.707031c0 .089844-.089844.179688-.089844.265625 0 .089844-.085937.175782-.085937.265625-1.308594 3.441407-4.601563 5.726563-8.28125 5.738281h-98.074219c-23.605468.050782-43.28125-18.050781-45.199218-41.578124-1.738282-15.921876 7.796874-30.921876 22.953124-36.105469-2.167968 4.582031-3.285156 9.585937-3.265624 14.65625-.003907 12.035156 4.773437 23.578125 13.285156 32.085937 8.507812 8.511719 20.050781 13.289063 32.085937 13.285156h78.214844c2.796875 0 5.429687 1.320313 7.09375 3.566407 1.667969 2.242187 2.171875 5.144531 1.363281 7.820312zm0 0" fill="#cbb292"/></svg>