<svg height="511pt" viewBox="-62 0 511 511.89522" width="511pt" xmlns="http://www.w3.org/2000/svg"><path d="m28.003906 340.585938c.378906 24.621093 5.949219 48.882812 16.347656 71.203124 3.710938 9.84375 8.632813 19.183594 14.652344 27.808594 1.949219 2.925782 2.96875 6.371094 2.914063 9.886719v44.753906c.03125 9.742188 7.917969 17.628907 17.65625 17.65625h141.242187c9.738282-.027343 17.625-7.914062 17.652344-17.65625v-3.265625c0-17.964844.964844-35.671875 12.085938-50.667968 3.824218-4.90625 8.0625-9.476563 12.667968-13.65625 55.074219-52.523438 63.082032-134.992188 116.523438-188.410157 17.65625-17.652343 0-35.308593-17.65625-35.308593-17.652344 0-52.964844 35.308593-70.617188 61.792968-8.785156 14.421875-20.890625 26.527344-35.3125 35.308594l-17.398437 8.828125v-256.6875c.15625-9.460937-4.746094-18.289063-12.859375-23.15625-8.113282-4.867187-18.210938-5.035156-26.484375-.441406-8.269531 4.59375-13.464844 13.253906-13.621094 22.714843l-2.914063 178.609376c-.023437 1.117187-.878906 2.039062-1.988281 2.148437-1.113281.113281-2.128906-.625-2.371093-1.714844l-29.449219-136.722656-16.242188-71.398437c-2.769531-14.195313-16.074219-23.8125-30.421875-21.988282-7.167968 1.15625-13.546875 5.210938-17.640625 11.207032-4.097656 5.996093-5.550781 13.410156-4.023437 20.507812l39.371094 201.15625c1.496093 7.898438-2.535157 15.808594-9.804688 19.242188-7.265625 3.4375-15.9375 1.527343-21.089844-4.640626l-18.183594-18.28125zm0 0" fill="#fdd7ad"/><path d="m286.949219 270.980469c-.007813.09375-.039063.183593-.085938.265625-2.0625 12.652344-8.742187 24.089844-18.742187 32.105468-11.4375 8.429688-24.410156 14.550782-38.1875 18.027344-9.378906 2.328125-17.539063 8.09375-22.863282 16.152344-3.148437 4.8125-4.890624 10.40625-5.03125 16.15625 0 4.875-3.953124 8.828125-8.828124 8.828125s-8.828126-3.953125-8.828126-8.828125c.117188-9.097656 2.8125-17.972656 7.769532-25.601562 11.035156-17.476563 33.101562-19.242188 51.199218-24.441407 3.660157-1.027343 7.253907-2.269531 10.769532-3.71875 3.082031-1.238281 6.0625-2.714843 8.917968-4.414062 9.132813-6.957031 17.191407-15.222657 23.910157-24.53125zm0 0" fill="#cbb292"/><path d="m130.09375 338.558594c-11.175781 9.375-27.816406 7.996094-37.296875-3.089844l-68.546875-80.816406c-9.4375-11.15625-8.058594-27.84375 3.082031-37.296875.832031-.710938 1.71875-1.359375 2.648438-1.933594 2.265625-1.523437 4.757812-2.671875 7.386719-3.410156 9.945312-2.777344 20.59375.515625 27.234374 8.421875l68.511719 80.738281c4.566407 5.355469 6.816407 12.304687 6.25 19.320313-.566406 7.011718-3.902343 13.511718-9.269531 18.066406zm0 0" fill="#cbb292"/><path d="m114.609375 342.820312c-.832031.707032-1.71875 1.355469-2.648437 1.933594-7.398438-.269531-14.34375-3.640625-19.136719-9.285156l-68.574219-80.816406c-9.4375-11.15625-8.058594-27.84375 3.082031-37.296875.832031-.710938 1.71875-1.359375 2.648438-1.933594 7.410156.234375 14.367187 3.613281 19.136719 9.285156l68.503906 80.738281c4.5625 5.351563 6.8125 12.300782 6.246094 19.3125-.5625 7.011719-3.894532 13.511719-9.257813 18.0625zm0 0" fill="#fdd7ad"/><path d="m112.527344 399.714844c-9.070313 7.703125-22.1875 8.351562-31.972656 1.578125-2-1.269531-3.789063-2.84375-5.296876-4.667969l-68.539062-80.816406c-5.835938-6.894532-7.757812-16.289063-5.09375-24.917969 2.664062-8.632813 9.542969-15.3125 18.246094-17.71875.621094-.199219 1.265625-.316406 1.917968-.34375 9.402344-1.9375 19.113282 1.425781 25.308594 8.765625l68.535156 80.824219c4.554688 5.351562 6.785157 12.292969 6.199219 19.292969-.582031 7-3.929687 13.480468-9.304687 18.003906zm0 0" fill="#cbb292"/><path d="m97.042969 403.976562c-.835938.707032-1.71875 1.351563-2.648438 1.925782-7.402343-.265625-14.347656-3.636719-19.136719-9.285156l-68.53125-80.816407c-9.433593-11.15625-8.058593-27.84375 3.082032-37.296875.832031-.710937 1.71875-1.351562 2.648437-1.925781 7.410157.230469 14.371094 3.601563 19.136719 9.277344l68.503906 80.738281c4.5625 5.359375 6.804688 12.3125 6.230469 19.324219-.570313 7.015625-3.914063 13.511719-9.285156 18.058593zm0 0" fill="#fdd7ad"/><g fill="#fee7ce"><path d="m203.167969 485.414062h-8.828125c-4.875 0-8.828125-3.953124-8.828125-8.828124s3.953125-8.828126 8.828125-8.828126h8.828125c4.875 0 8.828125 3.953126 8.828125 8.828126s-3.953125 8.828124-8.828125 8.828124zm0 0"/><path d="m159.03125 485.414062h-61.792969c-4.875 0-8.828125-3.953124-8.828125-8.828124s3.953125-8.828126 8.828125-8.828126h61.792969c4.875 0 8.828125 3.953126 8.828125 8.828126s-3.953125 8.828124-8.828125 8.828124zm0 0"/></g></svg>