<svg height="512.00003pt" viewBox="0 0 512.00003 512.00003" width="512.00003pt" xmlns="http://www.w3.org/2000/svg"><path d="m247.730469 59.511719c13.816406-12.878907 35.324219-12.609375 48.8125.613281l79.46875 78.816406s31.683593 27.46875 32.589843 62.292969c1.761719 20.40625 10.460938 39.59375 24.644532 54.375l15.605468 15.273437 48.09375 47.699219c4.207032 4.167969 6.574219 9.84375 6.574219 15.761719 0 5.921875-2.367187 11.59375-6.574219 15.761719l-75.398437 74.777343-55.46875 55.015626c-8.820313 8.667968-22.964844 8.667968-31.785156 0l-85.445313-84.738282-2.5-1.800781c-6.589844-4.738281-14.722656-6.828125-22.78125-5.851563h-.128906c-21.179688 1.941407-42.367188-3.59375-59.886719-15.652343-13.917969-10.808594-48.980469-37.546875-68.4375-55.082031zm0 0" fill="#fdd7ad"/><g fill="#4482c3"><path d="m119.464844 512c-65.949219-.070312-119.3945315-53.515625-119.464844-119.464844 0-4.714844 3.820312-8.535156 8.535156-8.535156 4.710938 0 8.53125 3.820312 8.53125 8.535156.0625 56.527344 45.871094 102.335938 102.398438 102.398438 4.714844 0 8.535156 3.820312 8.535156 8.53125 0 4.714844-3.820312 8.535156-8.535156 8.535156zm0 0"/><path d="m128 477.867188c-51.816406-.0625-93.804688-42.050782-93.867188-93.867188 0-4.710938 3.820313-8.535156 8.535157-8.535156 4.710937 0 8.53125 3.824218 8.53125 8.535156.046875 42.394531 34.40625 76.753906 76.800781 76.800781 4.710938 0 8.535156 3.820313 8.535156 8.53125 0 4.714844-3.824218 8.535157-8.535156 8.535157zm0 0"/><path d="m503.464844 128c-4.710938 0-8.53125-3.820312-8.53125-8.535156-.0625-56.527344-45.871094-102.335938-102.398438-102.398438-4.714844 0-8.535156-3.820312-8.535156-8.53125 0-4.714844 3.820312-8.535156 8.535156-8.535156 65.949219.0703125 119.394532 53.515625 119.464844 119.464844 0 4.714844-3.820312 8.535156-8.535156 8.535156zm0 0"/><path d="m469.332031 136.535156c-4.710937 0-8.53125-3.824218-8.53125-8.535156-.046875-42.394531-34.40625-76.753906-76.800781-76.800781-4.710938 0-8.535156-3.820313-8.535156-8.53125 0-4.714844 3.824218-8.535157 8.535156-8.535157 51.816406.0625 93.804688 42.050782 93.867188 93.867188 0 4.710938-3.820313 8.535156-8.535157 8.535156zm0 0"/></g><path d="m454.195312 353.210938c-3.453124-.015626-6.554687-2.105469-7.863281-5.300782-1.304687-3.191406-.5625-6.859375 1.890625-9.289062l9.796875-9.710938c3.359375-3.222656 8.683594-3.15625 11.964844.148438 3.277344 3.308594 3.300781 8.632812.046875 11.96875l-9.828125 9.691406c-1.59375 1.59375-3.753906 2.488281-6.007813 2.492188zm0 0" fill="#fee7ce"/><path d="m350.140625 456.398438c-3.453125-.015626-6.554687-2.109376-7.863281-5.300782-1.304688-3.195312-.5625-6.863281 1.890625-9.292968l78.316406-77.652344c3.363281-3.222656 8.6875-3.15625 11.964844.152344 3.28125 3.304687 3.300781 8.628906.050781 11.964843l-78.320312 77.652344c-1.601563 1.597656-3.777344 2.488281-6.039063 2.476563zm0 0" fill="#fee7ce"/><path d="m205.824219 321.535156c-6.527344 17.371094-25.832031 26.242188-43.265625 19.882813l-112.894532-41.214844c-11.332031-4.097656-19.578124-13.976563-21.589843-25.855469-1.058594-5.722656-.527344-11.625 1.535156-17.066406 4.957031-13.191406 17.570313-21.929688 31.660156-21.933594 3.957031.015625 7.882813.710938 11.605469 2.050782l112.894531 41.214843c4.09375 1.480469 7.859375 3.742188 11.09375 6.65625 10.128907 9.113281 13.679688 23.484375 8.960938 36.265625zm0 0" fill="#cbb292"/><path d="m195.328125 302.335938c-6.527344 17.371093-25.832031 26.242187-43.265625 19.882812l-112.894531-41.214844c-4.09375-1.484375-7.859375-3.742187-11.09375-6.65625-1.058594-5.722656-.527344-11.625 1.535156-17.066406 4.957031-13.191406 17.570313-21.929688 31.660156-21.933594 3.957031.015625 7.882813.710938 11.605469 2.050782l112.894531 41.214843c4.09375 1.480469 7.859375 3.742188 11.09375 6.65625 1.0625 5.722657.53125 11.625-1.535156 17.066407zm0 0" fill="#fdd7ad"/><path d="m203 249.472656c-6.53125 17.371094-25.832031 26.238282-43.265625 19.882813l-129.082031-47.292969c-11.332032-4.097656-19.578125-13.976562-21.589844-25.855469-1.058594-5.722656-.527344-11.625 1.535156-17.066406 4.957032-13.191406 17.570313-21.929687 31.660156-21.929687 3.957032.015624 7.882813.707031 11.605469 2.046874l129.082031 47.292969c4.09375 1.480469 7.859376 3.742188 11.09375 6.65625 10.128907 9.113281 13.679688 23.480469 8.960938 36.265625zm0 0" fill="#cbb292"/><path d="m192.503906 230.273438c-6.527344 17.367187-25.832031 26.238281-43.265625 19.882812l-129.082031-47.292969c-4.09375-1.484375-7.859375-3.742187-11.09375-6.65625-1.058594-5.722656-.527344-11.625 1.535156-17.066406 4.957032-13.191406 17.570313-21.929687 31.660156-21.929687 3.957032.015624 7.882813.707031 11.605469 2.046874l129.082031 47.292969c4.09375 1.480469 7.859376 3.742188 11.09375 6.65625 1.0625 5.71875.53125 11.625-1.535156 17.066407zm0 0" fill="#fdd7ad"/><path d="m215.570312 182.785156c-6.53125 17.371094-25.832031 26.238282-43.265624 19.882813l-112.179688-40.800781c-11.328125-4.097657-19.578125-13.972657-21.589844-25.855469-1.058594-5.722657-.527344-11.625 1.539063-17.066407 4.953125-13.191406 17.566406-21.925781 31.65625-21.929687 3.957031.015625 7.882812.707031 11.605469 2.046875l112.179687 40.800781c4.09375 1.480469 7.859375 3.742188 11.09375 6.652344 10.128906 9.117187 13.679687 23.484375 8.960937 36.269531zm0 0" fill="#cbb292"/><path d="m205.074219 163.585938c-6.53125 17.367187-25.832031 26.238281-43.265625 19.878906l-112.179688-40.796875c-4.089844-1.480469-7.859375-3.742188-11.09375-6.65625-1.058594-5.722657-.527344-11.625 1.539063-17.066407 4.953125-13.191406 17.566406-21.925781 31.65625-21.929687 3.957031.015625 7.882812.707031 11.605469 2.046875l112.179687 40.800781c4.09375 1.480469 7.859375 3.742188 11.09375 6.652344 1.058594 5.722656.527344 11.628906-1.535156 17.070313zm0 0" fill="#fdd7ad"/><path d="m264.816406 136.816406c-7.367187 17.03125-27.074218 24.957032-44.179687 17.765625l-110.070313-46.207031c-11.117187-4.644531-18.875-14.910156-20.308594-26.875-.78125-5.765625.035157-11.636719 2.363282-16.972656 5.589844-12.933594 18.609375-21.046875 32.683594-20.367188 3.949218.191406 7.835937 1.058594 11.492187 2.558594l110.082031 46.183594c4.015625 1.675781 7.671875 4.117187 10.757813 7.183594 9.703125 9.613281 12.546875 24.171874 7.179687 36.730468zm0 0" fill="#cbb292"/><path d="m255.257812 117.128906c-7.367187 17.03125-27.070312 24.957032-44.175781 17.765625l-110.0625-46.148437c-4.019531-1.679688-7.671875-4.121094-10.761719-7.183594-.78125-5.769531.035157-11.640625 2.363282-16.972656 5.589844-12.933594 18.609375-21.050782 32.683594-20.371094 3.949218.191406 7.835937 1.058594 11.492187 2.5625l110.082031 46.179688c4.015625 1.679687 7.671875 4.117187 10.757813 7.1875.777343 5.769531-.042969 11.644531-2.378907 16.980468zm0 0" fill="#fdd7ad"/><path d="m294 236.722656c-4.054688-.003906-7.542969-2.855468-8.355469-6.824218-4.980469-18.625-3.113281-38.414063 5.265625-55.777344l-29.867187-29.011719c-2.171875-2.148437-3.035157-5.292969-2.257813-8.246094.773438-2.957031 3.0625-5.273437 6.011719-6.082031 2.945313-.804688 6.097656.019531 8.269531 2.167969l34.894532 34.023437c1.613281 1.601563 2.523437 3.78125 2.523437 6.058594 0 2.273438-.910156 4.457031-2.523437 6.058594-.402344.433594-12.375 13.761718-5.582032 47.417968.445313 2.222657-.007812 4.527344-1.261718 6.414063-1.253907 1.886719-3.207032 3.195313-5.429688 3.640625-.554688.105469-1.121094.160156-1.6875.160156zm0 0" fill="#cbb292"/><path d="m283.878906 131.207031-60.894531 60.390625c-17.171875 16.964844-44.796875 16.964844-61.96875 0-6.148437-6.089844-9.609375-14.382812-9.609375-23.039062 0-8.652344 3.460938-16.949219 9.609375-23.039063l86.714844-86.007812zm0 0" fill="#fdd7ad"/><path d="m286.625 120.933594c1.566406 3.136718.945312 6.921875-1.542969 9.386718l-62.105469 61.253907c-17.160156 16.980469-44.792968 16.980469-61.953124 0-10.179688-10.050781-12.570313-25.582031-5.886719-38.230469 1.617187 4.960938 4.398437 9.46875 8.105469 13.140625 17.160156 16.980469 44.792968 16.980469 61.953124 0l48.476563-47.785156c1.847656-1.816407 4.449219-2.644531 7.007813-2.222657 2.554687.421876 4.757812 2.042969 5.921874 4.355469zm0 0" fill="#cbb292"/></svg>